<svg version="1.1" id="Layer_1" xmlns="http://www.w3.org/2000/svg" xmlns:xlink="http://www.w3.org/1999/xlink" x="0px" y="0px"
	 width="100%" viewBox="0 0 500 500" enable-background="new 0 0 500 500" xml:space="preserve">
<path fill="#000000" opacity="1.000000" stroke="none" 
	d="
M1.000000,194.000000 
	C1.000000,129.349350 1.000000,65.198708 1.000000,1.024032 
	C167.609024,1.024032 334.218048,1.024032 500.913544,1.024032 
	C500.913544,167.567368 500.913544,334.134796 500.913544,500.851135 
	C334.333435,500.851135 167.666733,500.851135 1.000000,500.851135 
	C1.000000,398.781830 1.000000,296.640900 1.000000,194.000000 
M240.781296,461.321533 
	C240.829086,451.911591 240.876877,442.501648 240.973221,432.153290 
	C240.639908,426.220612 240.443970,420.274261 239.856842,414.366791 
	C239.740051,413.191803 238.270905,411.433350 237.173050,411.215485 
	C234.456329,410.676300 231.593414,410.796570 228.789307,410.797882 
	C226.256119,410.799072 224.872116,411.908356 224.973358,414.743622 
	C225.168488,420.207520 225.136322,425.679535 225.126465,432.019531 
	C225.119904,434.647919 225.113327,437.276276 224.975662,440.315735 
	C224.975662,440.315735 224.960587,440.746918 224.576767,441.075378 
	C224.703415,441.477386 224.830063,441.879364 224.952911,442.676331 
	C224.952911,442.676331 225.069870,443.053558 225.019531,443.981720 
	C225.334549,449.964294 225.649567,455.946838 226.898376,462.002411 
	C231.313187,461.951935 235.728012,461.901459 240.781296,461.321533 
M228.270737,399.779419 
	C242.510696,399.863281 256.750641,399.960968 270.990723,399.986908 
	C271.647339,399.988129 272.305176,399.346039 273.899994,398.995026 
	C293.859253,397.668274 313.866913,396.837097 333.765808,394.892548 
	C360.140533,392.315155 386.125061,387.425568 411.336182,378.939087 
	C427.111572,373.628845 442.572357,367.551697 454.162354,355.069122 
	C461.119690,347.575989 464.464233,338.692352 460.254944,328.098236 
	C456.269653,318.068054 447.836578,312.755341 439.751190,306.430786 
	C436.915649,311.382751 434.341278,315.878540 431.955933,320.044250 
	C435.745270,323.319000 439.553101,326.055206 442.667145,329.431335 
	C447.299286,334.453339 447.423218,340.241791 442.438934,344.314575 
	C436.718597,348.988770 430.596619,353.535919 423.950500,356.644775 
	C403.452026,366.233246 381.566071,371.424438 359.298218,374.892914 
	C346.106445,376.947693 332.841858,378.609344 319.564728,380.022125 
	C304.837372,381.589203 290.074188,383.487274 275.298248,383.772430 
	C253.460602,384.193909 231.590683,383.556427 209.749069,382.891571 
	C199.500397,382.579559 189.285721,381.150970 178.675735,380.194183 
	C179.494370,373.340454 180.208740,367.359650 180.962234,361.051422 
	C179.457336,361.051422 178.573517,360.833557 177.852905,361.084442 
	C168.642975,364.291107 159.404404,367.427246 150.283035,370.872314 
	C144.632263,373.006561 139.406113,375.980438 132.906906,373.303802 
	C128.703964,371.572937 124.033958,370.907043 119.526100,369.997681 
	C100.029770,366.064453 81.312599,360.249237 64.602020,348.943298 
	C54.597591,342.174591 53.680824,333.890350 62.591812,325.912262 
	C64.720039,324.006866 68.477150,322.211761 68.596519,320.194946 
	C68.753288,317.546082 66.058136,314.723145 64.566872,311.987366 
	C64.330177,311.553162 63.880566,311.223969 63.689396,310.777679 
	C62.007317,306.850647 59.352802,307.637817 56.951210,309.695679 
	C53.879093,312.328094 51.095333,315.302887 48.244904,318.187042 
	C38.674191,327.871002 37.534424,340.131195 45.046276,351.645782 
	C50.539104,360.065552 58.998756,364.791718 67.518578,369.201508 
	C85.604851,378.562866 105.133675,383.745605 124.883118,388.224091 
	C131.551193,389.736176 138.800751,389.207153 144.567749,394.069763 
	C148.985168,397.794403 153.676682,401.200531 158.320984,404.647705 
	C162.899765,408.046265 167.572479,411.318237 172.874634,415.127563 
	C173.400223,412.560028 173.742676,411.002655 174.034943,409.435944 
	C174.701080,405.865204 175.081757,402.209534 176.143600,398.762482 
	C176.488831,397.641693 178.623734,396.291992 179.879547,396.350311 
	C195.873840,397.092926 211.857117,398.072998 228.270737,399.779419 
M408.855774,343.918121 
	C412.187286,343.932129 415.586945,344.342834 418.820557,343.787201 
	C420.360260,343.522614 422.731995,341.458099 422.776947,340.142303 
	C423.366364,322.891418 423.714752,305.573029 418.586121,288.829376 
	C411.103088,264.399231 403.637970,239.953125 395.504608,215.735703 
	C387.951996,193.247498 379.393280,171.098877 371.600250,148.688507 
	C369.783752,143.464737 368.507233,137.807800 368.355865,132.312347 
	C368.165802,125.411568 369.261719,118.457573 370.031097,111.551994 
	C371.479492,98.551819 373.217865,85.583229 374.593109,72.575859 
	C375.585876,63.186390 376.322449,53.762489 376.810638,44.335175 
	C376.881622,42.964264 374.928436,40.273491 373.910919,40.273006 
	C369.659912,40.270992 365.406830,41.049812 361.165436,41.623295 
	C361.037323,41.640617 361.002686,42.549343 360.970398,43.045464 
	C360.604858,48.670528 360.007874,54.294697 359.973297,59.922180 
	C359.950073,63.700600 358.231842,65.110092 354.845856,64.949692 
	C349.109039,64.677933 343.364685,64.403847 337.650574,63.851017 
	C328.812317,62.995922 320.005463,61.819885 311.169891,60.933071 
	C294.533325,59.263275 277.914642,57.150223 261.233307,56.278511 
	C248.787155,55.628120 236.247345,56.473495 223.762543,56.980488 
	C217.202072,57.246906 210.666199,58.179718 204.126389,58.878632 
	C195.942581,59.753246 187.770020,60.733402 179.585541,61.601463 
	C168.715027,62.754414 157.845398,63.937904 146.952332,64.825157 
	C145.751602,64.922966 143.494019,63.342026 143.280365,62.238770 
	C142.497787,58.197857 142.083481,54.031765 142.054596,49.909138 
	C141.976990,38.838440 143.207520,40.199814 131.676682,39.892216 
	C127.387054,39.777779 125.602592,40.982292 125.964676,45.490211 
	C126.797737,55.861870 127.212120,66.267120 128.041306,76.639160 
	C128.525665,82.698219 129.511353,88.716110 130.219055,94.758659 
	C131.501587,105.709602 133.119019,116.638069 133.913940,127.625313 
	C135.011978,142.802231 128.305771,156.375275 123.635330,170.197281 
	C113.724594,199.527740 102.759109,228.500336 92.683250,257.777008 
	C86.346077,276.190430 80.994209,294.947723 79.497643,314.503510 
	C78.703369,324.882416 78.036873,335.329254 80.519226,345.712952 
	C84.669136,345.712952 88.487419,346.036865 92.197662,345.545349 
	C93.582886,345.361847 95.760818,343.307526 95.799431,342.051575 
	C96.119354,331.647064 95.371109,321.174438 96.249168,310.833069 
	C97.007507,301.901855 99.471695,293.115479 101.216873,284.083405 
	C103.554947,284.499512 105.003242,284.740753 106.445000,285.016266 
	C141.748779,291.761322 172.715530,307.082397 198.022110,332.747589 
	C207.940079,342.806122 217.871307,353.317200 220.500748,368.233490 
	C220.940063,370.725677 221.790863,373.145325 222.473053,375.678375 
	C226.413422,375.075378 229.664200,374.362885 232.948608,374.135071 
	C236.311462,373.901825 237.558289,372.024506 236.884247,369.183289 
	C235.359711,362.757080 234.649628,355.745667 231.490860,350.172363 
	C221.868393,333.194489 208.606766,318.987579 193.277817,307.068634 
	C180.175339,296.880829 166.160782,288.047302 150.444946,281.898651 
	C137.565231,276.859589 124.727783,272.135193 111.043587,269.926392 
	C109.497704,269.676849 108.018074,269.016907 106.187225,268.447662 
	C107.936935,262.274689 109.719513,256.599426 111.120331,250.831421 
	C112.079765,246.880905 113.944862,246.206375 117.810387,247.146896 
	C136.596664,251.717773 155.339935,256.615112 174.330643,260.149017 
	C189.663513,263.002258 205.309311,264.250671 220.853226,265.852417 
	C226.507736,266.435089 232.269119,265.980682 238.392792,266.773224 
	C247.903275,266.827728 257.413757,266.882233 267.784546,267.025848 
	C270.396820,266.681549 273.000793,266.245178 275.622803,266.008881 
	C287.351593,264.951935 299.111267,264.183807 310.812286,262.883789 
	C336.014923,260.083557 360.697723,254.686310 384.871124,247.056427 
	C388.309814,245.971085 389.861542,247.004898 390.806824,250.039856 
	C392.702209,256.125427 394.585083,262.214874 396.650787,268.875549 
	C394.282654,269.192352 392.094879,269.364868 389.957184,269.789459 
	C366.405731,274.467133 344.291656,282.823975 324.032135,295.822845 
	C312.865540,302.987518 302.544250,311.095184 293.379211,320.848785 
	C281.309448,333.693665 269.389740,346.491699 266.551483,364.763275 
	C264.999542,374.753998 262.783752,373.304077 272.642303,374.511444 
	C273.956970,374.672424 275.327393,374.712097 276.561157,375.132965 
	C279.588348,376.165680 280.376556,374.928680 281.197754,372.048859 
	C283.131683,365.266937 284.741333,358.095978 288.270294,352.142334 
	C292.443756,345.101379 298.113220,338.806946 303.820526,332.846100 
	C314.036316,322.176575 325.911285,313.567078 338.749908,306.186401 
	C357.895660,295.179840 378.180389,287.627502 401.173645,284.248810 
	C403.177185,294.276459 405.157532,304.188232 407.060089,315.021332 
	C407.034180,319.788635 406.875854,324.559906 407.019348,329.322083 
	C407.165131,334.159149 407.608673,338.987213 408.855774,343.918121 
M108.969208,448.636810 
	C105.405273,429.854553 101.841331,411.072266 98.154877,391.644348 
	C93.237396,392.180542 88.252174,392.724091 83.261986,393.268219 
	C83.898308,399.764160 84.084007,405.563416 85.093613,411.215485 
	C87.834999,426.562622 90.939613,441.844696 93.865608,457.159180 
	C94.448265,460.208710 95.524429,462.171600 99.280167,462.084808 
	C113.473541,461.756714 111.933884,463.666229 109.115204,449.982330 
	C109.081665,449.819458 109.066010,449.652893 108.969208,448.636810 
M393.433716,450.974854 
	C390.783234,463.912537 390.649109,461.754120 403.310242,462.061584 
	C406.371796,462.135925 407.640808,461.009674 408.180450,457.883301 
	C411.531860,438.466248 415.089386,419.084625 418.612488,399.697449 
	C419.682434,393.809601 418.863251,392.618347 412.969177,391.963837 
	C411.815735,391.835785 410.642670,391.855164 409.498505,391.678040 
	C404.761230,390.944733 403.511383,392.114899 402.855255,397.011200 
	C401.761688,405.171661 400.521484,413.317200 399.119019,421.430328 
	C397.458954,431.033813 395.561432,440.596283 393.433716,450.974854 
M278.000793,421.571198 
	C278.046295,411.557129 275.481750,408.839996 267.355743,410.129913 
	C263.592682,410.727234 261.754089,412.222778 261.856659,416.591339 
	C262.180145,430.373566 261.984344,444.167786 262.021576,457.957306 
	C262.024963,459.211060 262.258667,460.464233 262.386017,461.723755 
	C267.363342,461.723755 271.954132,461.723755 277.996307,461.723755 
	C277.996307,448.468536 277.996307,435.509094 278.000793,421.571198 
z"/>
<path fill="#444444" opacity="1.000000" stroke="none" 
	d="
M407.137909,314.099976 
	C405.157532,304.188232 403.177185,294.276459 401.173645,284.248810 
	C378.180389,287.627502 357.895660,295.179840 338.749908,306.186401 
	C325.911285,313.567078 314.036316,322.176575 303.820526,332.846100 
	C298.113220,338.806946 292.443756,345.101379 288.270294,352.142334 
	C284.741333,358.095978 283.131683,365.266937 281.197754,372.048859 
	C280.376556,374.928680 279.588348,376.165680 276.561157,375.132965 
	C275.327393,374.712097 273.956970,374.672424 272.642303,374.511444 
	C262.783752,373.304077 264.999542,374.753998 266.551483,364.763275 
	C269.389740,346.491699 281.309448,333.693665 293.379211,320.848785 
	C302.544250,311.095184 312.865540,302.987518 324.032135,295.822845 
	C344.291656,282.823975 366.405731,274.467133 389.957184,269.789459 
	C392.094879,269.364868 394.282654,269.192352 396.650787,268.875549 
	C394.585083,262.214874 392.702209,256.125427 390.806824,250.039856 
	C389.861542,247.004898 388.309814,245.971085 384.871124,247.056427 
	C360.697723,254.686310 336.014923,260.083557 310.812286,262.883789 
	C299.111267,264.183807 287.351593,264.951935 275.622803,266.008881 
	C273.000793,266.245178 270.396820,266.681549 267.102631,266.641724 
	C256.941040,266.171570 247.461395,266.085510 237.981735,265.999451 
	C232.269119,265.980682 226.507736,266.435089 220.853226,265.852417 
	C205.309311,264.250671 189.663513,263.002258 174.330643,260.149017 
	C155.339935,256.615112 136.596664,251.717773 117.810387,247.146896 
	C113.944862,246.206375 112.079765,246.880905 111.120331,250.831421 
	C109.719513,256.599426 107.936935,262.274689 106.187225,268.447662 
	C108.018074,269.016907 109.497704,269.676849 111.043587,269.926392 
	C124.727783,272.135193 137.565231,276.859589 150.444946,281.898651 
	C166.160782,288.047302 180.175339,296.880829 193.277817,307.068634 
	C208.606766,318.987579 221.868393,333.194489 231.490860,350.172363 
	C234.649628,355.745667 235.359711,362.757080 236.884247,369.183289 
	C237.558289,372.024506 236.311462,373.901825 232.948608,374.135071 
	C229.664200,374.362885 226.413422,375.075378 222.473053,375.678375 
	C221.790863,373.145325 220.940063,370.725677 220.500748,368.233490 
	C217.871307,353.317200 207.940079,342.806122 198.022110,332.747589 
	C172.715530,307.082397 141.748779,291.761322 106.445000,285.016266 
	C105.003242,284.740753 103.554947,284.499512 101.216873,284.083405 
	C99.471695,293.115479 97.007507,301.901855 96.249168,310.833069 
	C95.371109,321.174438 96.119354,331.647064 95.799431,342.051575 
	C95.760818,343.307526 93.582886,345.361847 92.197662,345.545349 
	C88.487419,346.036865 84.669136,345.712952 80.519226,345.712952 
	C78.036873,335.329254 78.703369,324.882416 79.497643,314.503510 
	C80.994209,294.947723 86.346077,276.190430 92.683250,257.777008 
	C102.759109,228.500336 113.724594,199.527740 123.635330,170.197281 
	C128.305771,156.375275 135.011978,142.802231 133.913940,127.625313 
	C133.119019,116.638069 131.501587,105.709602 130.219055,94.758659 
	C129.511353,88.716110 128.525665,82.698219 128.041306,76.639160 
	C127.212120,66.267120 126.797737,55.861870 125.964676,45.490211 
	C125.602592,40.982292 127.387054,39.777779 131.676682,39.892216 
	C143.207520,40.199814 141.976990,38.838440 142.054596,49.909138 
	C142.083481,54.031765 142.497787,58.197857 143.280365,62.238770 
	C143.494019,63.342026 145.751602,64.922966 146.952332,64.825157 
	C157.845398,63.937904 168.715027,62.754414 179.585541,61.601463 
	C187.770020,60.733402 195.942581,59.753246 204.126389,58.878632 
	C210.666199,58.179718 217.202072,57.246906 223.762543,56.980488 
	C236.247345,56.473495 248.787155,55.628120 261.233307,56.278511 
	C277.914642,57.150223 294.533325,59.263275 311.169891,60.933071 
	C320.005463,61.819885 328.812317,62.995922 337.650574,63.851017 
	C343.364685,64.403847 349.109039,64.677933 354.845856,64.949692 
	C358.231842,65.110092 359.950073,63.700600 359.973297,59.922180 
	C360.007874,54.294697 360.604858,48.670528 360.970398,43.045464 
	C361.002686,42.549343 361.037323,41.640617 361.165436,41.623295 
	C365.406830,41.049812 369.659912,40.270992 373.910919,40.273006 
	C374.928436,40.273491 376.881622,42.964264 376.810638,44.335175 
	C376.322449,53.762489 375.585876,63.186390 374.593109,72.575859 
	C373.217865,85.583229 371.479492,98.551819 370.031097,111.551994 
	C369.261719,118.457573 368.165802,125.411568 368.355865,132.312347 
	C368.507233,137.807800 369.783752,143.464737 371.600250,148.688507 
	C379.393280,171.098877 387.951996,193.247498 395.504608,215.735703 
	C403.637970,239.953125 411.103088,264.399231 418.586121,288.829376 
	C423.714752,305.573029 423.366364,322.891418 422.776947,340.142303 
	C422.731995,341.458099 420.360260,343.522614 418.820557,343.787201 
	C415.586945,344.342834 412.187286,343.932129 408.389618,343.411743 
	C407.661591,333.303589 407.399750,323.701782 407.137909,314.099976 
M352.879547,139.089569 
	C354.440094,120.644585 356.064148,102.204239 357.409515,83.743584 
	C357.493774,82.587593 355.495239,80.300117 354.299835,80.179207 
	C339.200745,78.652008 324.071136,77.427101 308.949432,76.123573 
	C296.252625,75.029076 283.534576,74.133919 270.864532,72.787598 
	C254.019257,70.997597 237.233215,71.873985 220.456375,73.384491 
	C209.865219,74.338058 199.322952,75.832588 188.732635,76.797981 
	C175.276230,78.024635 161.797256,79.015785 148.318634,79.976830 
	C145.626831,80.168755 144.866028,81.388023 145.127335,83.811981 
	C146.473587,96.299339 147.346802,108.859032 149.271683,121.255806 
	C150.761261,130.849228 150.360321,140.267151 147.374329,149.197922 
	C139.829346,171.764175 131.522385,194.075424 123.547775,216.498474 
	C121.855156,221.257782 120.277710,226.058060 118.441772,231.441879 
	C131.655563,234.752625 143.805267,238.256790 156.153198,240.797592 
	C184.375549,246.604858 212.860062,250.210754 241.741440,250.982040 
	C267.667664,251.674423 293.386871,249.596222 318.857574,245.555161 
	C338.832825,242.385956 358.475616,237.106705 378.247498,232.681503 
	C382.954681,231.627991 383.412567,230.084152 381.713379,225.642075 
	C375.971924,210.632568 370.021362,195.685852 364.884521,180.467453 
	C360.390076,167.152191 356.884918,153.502991 352.879547,139.089569 
z"/>
<path fill="#444444" opacity="1.000000" stroke="none" 
	d="
M227.843185,398.992676 
	C211.857117,398.072998 195.873840,397.092926 179.879547,396.350311 
	C178.623734,396.291992 176.488831,397.641693 176.143600,398.762482 
	C175.081757,402.209534 174.701080,405.865204 174.034943,409.435944 
	C173.742676,411.002655 173.400223,412.560028 172.874634,415.127563 
	C167.572479,411.318237 162.899765,408.046265 158.320984,404.647705 
	C153.676682,401.200531 148.985168,397.794403 144.567749,394.069763 
	C138.800751,389.207153 131.551193,389.736176 124.883118,388.224091 
	C105.133675,383.745605 85.604851,378.562866 67.518578,369.201508 
	C58.998756,364.791718 50.539104,360.065552 45.046276,351.645782 
	C37.534424,340.131195 38.674191,327.871002 48.244904,318.187042 
	C51.095333,315.302887 53.879093,312.328094 56.951210,309.695679 
	C59.352802,307.637817 62.007317,306.850647 63.689396,310.777679 
	C63.880566,311.223969 64.330177,311.553162 64.566872,311.987366 
	C66.058136,314.723145 68.753288,317.546082 68.596519,320.194946 
	C68.477150,322.211761 64.720039,324.006866 62.591812,325.912262 
	C53.680824,333.890350 54.597591,342.174591 64.602020,348.943298 
	C81.312599,360.249237 100.029770,366.064453 119.526100,369.997681 
	C124.033958,370.907043 128.703964,371.572937 132.906906,373.303802 
	C139.406113,375.980438 144.632263,373.006561 150.283035,370.872314 
	C159.404404,367.427246 168.642975,364.291107 177.852905,361.084442 
	C178.573517,360.833557 179.457336,361.051422 180.962234,361.051422 
	C180.208740,367.359650 179.494370,373.340454 178.675735,380.194183 
	C189.285721,381.150970 199.500397,382.579559 209.749069,382.891571 
	C231.590683,383.556427 253.460602,384.193909 275.298248,383.772430 
	C290.074188,383.487274 304.837372,381.589203 319.564728,380.022125 
	C332.841858,378.609344 346.106445,376.947693 359.298218,374.892914 
	C381.566071,371.424438 403.452026,366.233246 423.950500,356.644775 
	C430.596619,353.535919 436.718597,348.988770 442.438934,344.314575 
	C447.423218,340.241791 447.299286,334.453339 442.667145,329.431335 
	C439.553101,326.055206 435.745270,323.319000 431.955933,320.044250 
	C434.341278,315.878540 436.915649,311.382751 439.751190,306.430786 
	C447.836578,312.755341 456.269653,318.068054 460.254944,328.098236 
	C464.464233,338.692352 461.119690,347.575989 454.162354,355.069122 
	C442.572357,367.551697 427.111572,373.628845 411.336182,378.939087 
	C386.125061,387.425568 360.140533,392.315155 333.765808,394.892548 
	C313.866913,396.837097 293.859253,397.668274 272.966736,398.952942 
	C257.303375,398.938141 242.573288,398.965393 227.843185,398.992676 
z"/>
<path fill="#454545" opacity="1.000000" stroke="none" 
	d="
M109.005608,449.062439 
	C109.066010,449.652893 109.081665,449.819458 109.115204,449.982330 
	C111.933884,463.666229 113.473541,461.756714 99.280167,462.084808 
	C95.524429,462.171600 94.448265,460.208710 93.865608,457.159180 
	C90.939613,441.844696 87.834999,426.562622 85.093613,411.215485 
	C84.084007,405.563416 83.898308,399.764160 83.261986,393.268219 
	C88.252174,392.724091 93.237396,392.180542 98.154877,391.644348 
	C101.841331,411.072266 105.405273,429.854553 109.005608,449.062439 
z"/>
<path fill="#444444" opacity="1.000000" stroke="none" 
	d="
M393.600281,450.575684 
	C395.561432,440.596283 397.458954,431.033813 399.119019,421.430328 
	C400.521484,413.317200 401.761688,405.171661 402.855255,397.011200 
	C403.511383,392.114899 404.761230,390.944733 409.498505,391.678040 
	C410.642670,391.855164 411.815735,391.835785 412.969177,391.963837 
	C418.863251,392.618347 419.682434,393.809601 418.612488,399.697449 
	C415.089386,419.084625 411.531860,438.466248 408.180450,457.883301 
	C407.640808,461.009674 406.371796,462.135925 403.310242,462.061584 
	C390.649109,461.754120 390.783234,463.912537 393.600281,450.575684 
z"/>
<path fill="#444444" opacity="1.000000" stroke="none" 
	d="
M277.998535,422.060425 
	C277.996307,435.509094 277.996307,448.468536 277.996307,461.723755 
	C271.954132,461.723755 267.363342,461.723755 262.386017,461.723755 
	C262.258667,460.464233 262.024963,459.211060 262.021576,457.957306 
	C261.984344,444.167786 262.180145,430.373566 261.856659,416.591339 
	C261.754089,412.222778 263.592682,410.727234 267.355743,410.129913 
	C275.481750,408.839996 278.046295,411.557129 277.998535,422.060425 
z"/>
<path fill="#434342" opacity="1.000000" stroke="none" 
	d="
M225.069855,443.053558 
	C225.069870,443.053558 224.952911,442.676331 224.973648,442.095154 
	C224.983124,441.258270 224.971863,441.002594 224.960587,440.746918 
	C224.960587,440.746918 224.975662,440.315735 225.166611,439.760071 
	C225.304520,436.519012 225.251465,433.833588 225.198410,431.148163 
	C225.136322,425.679535 225.168488,420.207520 224.973358,414.743622 
	C224.872116,411.908356 226.256119,410.799072 228.789307,410.797882 
	C231.593414,410.796570 234.456329,410.676300 237.173050,411.215485 
	C238.270905,411.433350 239.740051,413.191803 239.856842,414.366791 
	C240.443970,420.274261 240.639908,426.220612 240.610565,432.874023 
	C240.212875,443.013519 240.177841,452.432251 240.142822,461.850983 
	C235.728012,461.901459 231.313187,461.951935 226.470901,461.503784 
	C225.718903,455.021271 225.394379,449.037415 225.069855,443.053558 
z"/>
<path fill="#B8B8B8" opacity="1.000000" stroke="none" 
	d="
M228.056961,399.386047 
	C242.573288,398.965393 257.303375,398.938141 272.497955,398.957214 
	C272.305176,399.346039 271.647339,399.988129 270.990723,399.986908 
	C256.750641,399.960968 242.510696,399.863281 228.056961,399.386047 
z"/>
<path fill="#616161" opacity="1.000000" stroke="none" 
	d="
M407.098999,314.560669 
	C407.399750,323.701782 407.661591,333.303589 407.922668,343.362305 
	C407.608673,338.987213 407.165131,334.159149 407.019348,329.322083 
	C406.875854,324.559906 407.034180,319.788635 407.098999,314.560669 
z"/>
<path fill="#999999" opacity="1.000000" stroke="none" 
	d="
M238.187256,266.386353 
	C247.461395,266.085510 256.941040,266.171570 266.672485,266.597168 
	C257.413757,266.882233 247.903275,266.827728 238.187256,266.386353 
z"/>
<path fill="#999999" opacity="1.000000" stroke="none" 
	d="
M240.462067,461.586243 
	C240.177841,452.432251 240.212875,443.013519 240.586273,433.343262 
	C240.876877,442.501648 240.829086,451.911591 240.462067,461.586243 
z"/>
<path fill="#616161" opacity="1.000000" stroke="none" 
	d="
M225.044693,443.517639 
	C225.394379,449.037415 225.718903,455.021271 226.004013,461.467285 
	C225.649567,455.946838 225.334549,449.964294 225.044693,443.517639 
z"/>
<path fill="#616161" opacity="1.000000" stroke="none" 
	d="
M225.162445,431.583862 
	C225.251465,433.833588 225.304520,436.519012 225.232147,439.554565 
	C225.113327,437.276276 225.119904,434.647919 225.162445,431.583862 
z"/>
<path fill="#616161" opacity="1.000000" stroke="none" 
	d="
M224.768677,440.911133 
	C224.971863,441.002594 224.983124,441.258270 224.975555,441.897644 
	C224.830063,441.879364 224.703415,441.477386 224.768677,440.911133 
z"/>
<path fill="#000000" opacity="1.000000" stroke="none" 
	d="
M352.911133,139.545441 
	C356.884918,153.502991 360.390076,167.152191 364.884521,180.467453 
	C370.021362,195.685852 375.971924,210.632568 381.713379,225.642075 
	C383.412567,230.084152 382.954681,231.627991 378.247498,232.681503 
	C358.475616,237.106705 338.832825,242.385956 318.857574,245.555161 
	C293.386871,249.596222 267.667664,251.674423 241.741440,250.982040 
	C212.860062,250.210754 184.375549,246.604858 156.153198,240.797592 
	C143.805267,238.256790 131.655563,234.752625 118.441772,231.441879 
	C120.277710,226.058060 121.855156,221.257782 123.547775,216.498474 
	C131.522385,194.075424 139.829346,171.764175 147.374329,149.197922 
	C150.360321,140.267151 150.761261,130.849228 149.271683,121.255806 
	C147.346802,108.859032 146.473587,96.299339 145.127335,83.811981 
	C144.866028,81.388023 145.626831,80.168755 148.318634,79.976830 
	C161.797256,79.015785 175.276230,78.024635 188.732635,76.797981 
	C199.322952,75.832588 209.865219,74.338058 220.456375,73.384491 
	C237.233215,71.873985 254.019257,70.997597 270.864532,72.787598 
	C283.534576,74.133919 296.252625,75.029076 308.949432,76.123573 
	C324.071136,77.427101 339.200745,78.652008 354.299835,80.179207 
	C355.495239,80.300117 357.493774,82.587593 357.409515,83.743584 
	C356.064148,102.204239 354.440094,120.644585 352.911133,139.545441 
M250.504852,166.840271 
	C243.581284,173.591370 242.746353,182.029144 243.851624,190.984940 
	C244.450958,195.841324 248.218002,196.481140 251.917816,196.374512 
	C255.955078,196.258179 258.460083,194.110092 259.157990,189.716965 
	C259.874329,185.207916 261.131470,180.764221 262.432220,176.375000 
	C263.506287,172.750610 262.732391,169.862183 259.923828,167.449280 
	C257.229919,165.134872 254.426315,163.563095 250.504852,166.840271 
z"/>
<path fill="#454545" opacity="1.000000" stroke="none" 
	d="
M250.798248,166.597687 
	C254.426315,163.563095 257.229919,165.134872 259.923828,167.449280 
	C262.732391,169.862183 263.506287,172.750610 262.432220,176.375000 
	C261.131470,180.764221 259.874329,185.207916 259.157990,189.716965 
	C258.460083,194.110092 255.955078,196.258179 251.917816,196.374512 
	C248.218002,196.481140 244.450958,195.841324 243.851624,190.984940 
	C242.746353,182.029144 243.581284,173.591370 250.798248,166.597687 
z"/>
</svg>